<?xml version="1.0" encoding="UTF-8" standalone="no"?>
<!DOCTYPE svg PUBLIC "-//W3C//DTD SVG 1.1//EN"
 "http://www.w3.org/Graphics/SVG/1.1/DTD/svg11.dtd">
<!-- Generated by graphviz version 2.34.0 (20140110.0949)
 -->
<!-- Title: G Pages: 1 -->
<svg width="702pt" height="1558pt"
 viewBox="0.00 0.00 702.00 1558.00" xmlns="http://www.w3.org/2000/svg" xmlns:xlink="http://www.w3.org/1999/xlink">
<g id="graph0" class="graph" transform="scale(1 1) rotate(0) translate(4 1554)">
<title>G</title>
<polygon fill="white" stroke="white" points="-4,4 -4,-1554 698,-1554 698,4 -4,4"/>
<text text-anchor="middle" x="347" y="-112" font-family="Verdana" font-size="30.00">MU Mail</text>
<text text-anchor="middle" x="347" y="-79" font-family="Verdana" font-size="30.00">and dependencies</text>
<text text-anchor="middle" x="347" y="-46" font-family="Verdana" font-size="30.00">(green = maintained by MU</text>
<text text-anchor="middle" x="347" y="-13" font-family="Verdana" font-size="30.00">grey = community maintained)</text>
<!-- base -->
<g id="node1" class="node"><title>base</title>
<polygon fill="palegreen" stroke="black" points="555.5,-950 412.5,-950 412.5,-914 555.5,-914 555.5,-950"/>
<text text-anchor="middle" x="484" y="-927" font-family="Verdana" font-size="20.00">mu&#45;baseline</text>
</g>
<!-- mumail -->
<g id="node28" class="node"><title>mumail</title>
<polygon fill="palegreen" stroke="black" points="693.5,-973 592.5,-973 592.5,-937 693.5,-937 693.5,-973"/>
<text text-anchor="middle" x="643" y="-950" font-family="Verdana" font-size="20.00">mu&#45;mail</text>
</g>
<!-- base&#45;&gt;mumail -->
<g id="edge31" class="edge"><title>base&#45;&gt;mumail</title>
<path fill="none" stroke="black" d="M555.692,-942.356C564.584,-943.659 573.611,-944.981 582.31,-946.256"/>
<polygon fill="black" stroke="black" points="581.943,-949.739 592.344,-947.726 582.957,-942.813 581.943,-949.739"/>
</g>
<!-- yum -->
<g id="node2" class="node"><title>yum</title>
<polygon fill="lightgrey" stroke="black" points="85.5,-1404 24.5,-1404 24.5,-1368 85.5,-1368 85.5,-1404"/>
<text text-anchor="middle" x="55" y="-1381" font-family="Verdana" font-size="20.00">yum</text>
</g>
<!-- yum&#45;&gt;base -->
<g id="edge1" class="edge"><title>yum&#45;&gt;base</title>
<path fill="none" stroke="black" d="M69.1859,-1404C84.9112,-1423.79 113.225,-1454.42 146,-1467 193.718,-1485.31 338.591,-1501.83 376,-1467 458.021,-1390.64 347.857,-1055.89 412,-964 413.935,-961.228 416.169,-958.693 418.625,-956.374"/>
<polygon fill="black" stroke="black" points="420.934,-959.009 426.584,-950.046 416.578,-953.53 420.934,-959.009"/>
</g>
<!-- yum_epel -->
<g id="node3" class="node"><title>yum_epel</title>
<polygon fill="lightgrey" stroke="black" points="317.5,-1458 204.5,-1458 204.5,-1422 317.5,-1422 317.5,-1458"/>
<text text-anchor="middle" x="261" y="-1435" font-family="Verdana" font-size="20.00">yum&#45;epel</text>
</g>
<!-- yum&#45;&gt;yum_epel -->
<g id="edge27" class="edge"><title>yum&#45;&gt;yum_epel</title>
<path fill="none" stroke="black" d="M85.874,-1395.44C103.332,-1400.84 125.832,-1407.59 146,-1413 161.699,-1417.21 178.706,-1421.42 194.674,-1425.23"/>
<polygon fill="black" stroke="black" points="193.924,-1428.65 204.461,-1427.54 195.533,-1421.83 193.924,-1428.65"/>
</g>
<!-- yum_dell -->
<g id="node4" class="node"><title>yum_dell</title>
<polygon fill="palegreen" stroke="black" points="364,-1404 158,-1404 158,-1368 364,-1368 364,-1404"/>
<text text-anchor="middle" x="261" y="-1381" font-family="Verdana" font-size="20.00">yum&#45;vmware&#45;tools</text>
</g>
<!-- yum&#45;&gt;yum_dell -->
<g id="edge28" class="edge"><title>yum&#45;&gt;yum_dell</title>
<path fill="none" stroke="black" d="M85.6634,-1386C102.509,-1386 124.778,-1386 147.748,-1386"/>
<polygon fill="black" stroke="black" points="147.976,-1389.5 157.975,-1386 147.975,-1382.5 147.976,-1389.5"/>
</g>
<!-- yum_corporate -->
<g id="node5" class="node"><title>yum_corporate</title>
<polygon fill="palegreen" stroke="black" points="345,-1350 177,-1350 177,-1314 345,-1314 345,-1350"/>
<text text-anchor="middle" x="261" y="-1327" font-family="Verdana" font-size="20.00">yum&#45;corporate</text>
</g>
<!-- yum&#45;&gt;yum_corporate -->
<g id="edge29" class="edge"><title>yum&#45;&gt;yum_corporate</title>
<path fill="none" stroke="black" d="M85.874,-1376.56C103.332,-1371.16 125.832,-1364.41 146,-1359 154.119,-1356.82 162.588,-1354.64 171.081,-1352.52"/>
<polygon fill="black" stroke="black" points="172.176,-1355.86 181.044,-1350.06 170.497,-1349.06 172.176,-1355.86"/>
</g>
<!-- yum_vmware_tools -->
<g id="node6" class="node"><title>yum_vmware_tools</title>
<polygon fill="palegreen" stroke="black" points="364,-1296 158,-1296 158,-1260 364,-1260 364,-1296"/>
<text text-anchor="middle" x="261" y="-1273" font-family="Verdana" font-size="20.00">yum&#45;vmware&#45;tools</text>
</g>
<!-- yum&#45;&gt;yum_vmware_tools -->
<g id="edge30" class="edge"><title>yum&#45;&gt;yum_vmware_tools</title>
<path fill="none" stroke="black" d="M70.9868,-1367.99C87.4619,-1349.39 115.65,-1320.9 146,-1305 149.547,-1303.14 153.222,-1301.41 156.986,-1299.79"/>
<polygon fill="black" stroke="black" points="158.495,-1302.96 166.498,-1296.02 155.913,-1296.45 158.495,-1302.96"/>
</g>
<!-- yum_epel&#45;&gt;base -->
<g id="edge2" class="edge"><title>yum_epel&#45;&gt;base</title>
<path fill="none" stroke="black" d="M317.613,-1440.12C338.963,-1437.15 361.63,-1429.75 376,-1413 441.181,-1337.03 354.355,-1045.83 412,-964 413.947,-961.237 416.19,-958.708 418.654,-956.394"/>
<polygon fill="black" stroke="black" points="420.963,-959.03 426.63,-950.079 416.617,-953.542 420.963,-959.03"/>
</g>
<!-- yum_dell&#45;&gt;base -->
<g id="edge3" class="edge"><title>yum_dell&#45;&gt;base</title>
<path fill="none" stroke="black" d="M364.32,-1369.45C368.597,-1366.46 372.535,-1362.99 376,-1359 433.758,-1292.42 360.85,-1035.78 412,-964 413.962,-961.247 416.217,-958.727 418.691,-956.42"/>
<polygon fill="black" stroke="black" points="420.999,-959.057 426.688,-950.12 416.667,-953.559 420.999,-959.057"/>
</g>
<!-- yum_corporate&#45;&gt;base -->
<g id="edge4" class="edge"><title>yum_corporate&#45;&gt;base</title>
<path fill="none" stroke="black" d="M345.112,-1325.19C356.863,-1320.83 367.736,-1314.39 376,-1305 476.685,-1190.6 322.676,-1087.48 412,-964 413.981,-961.261 416.253,-958.752 418.738,-956.454"/>
<polygon fill="black" stroke="black" points="421.045,-959.093 426.764,-950.175 416.732,-953.58 421.045,-959.093"/>
</g>
<!-- yum_vmware_tools&#45;&gt;base -->
<g id="edge5" class="edge"><title>yum_vmware_tools&#45;&gt;base</title>
<path fill="none" stroke="black" d="M364.157,-1261.31C368.477,-1258.35 372.468,-1254.94 376,-1251 461.874,-1155.33 335.633,-1067.41 412,-964 414.048,-961.227 416.393,-958.688 418.954,-956.365"/>
<polygon fill="black" stroke="black" points="421.411,-958.892 427.211,-950.025 417.148,-953.34 421.411,-958.892"/>
</g>
<!-- resolver -->
<g id="node7" class="node"><title>resolver</title>
<polygon fill="lightgrey" stroke="black" points="310.5,-1242 211.5,-1242 211.5,-1206 310.5,-1206 310.5,-1242"/>
<text text-anchor="middle" x="261" y="-1219" font-family="Verdana" font-size="20.00">resolver</text>
</g>
<!-- resolver&#45;&gt;base -->
<g id="edge6" class="edge"><title>resolver&#45;&gt;base</title>
<path fill="none" stroke="black" d="M310.746,-1222.07C333.751,-1218.55 359.676,-1210.36 376,-1192 444.174,-1115.34 349.753,-1045.55 412,-964 414.092,-961.259 416.472,-958.747 419.061,-956.445"/>
<polygon fill="black" stroke="black" points="421.517,-958.976 427.38,-950.152 417.293,-953.394 421.517,-958.976"/>
</g>
<!-- chef_client -->
<g id="node8" class="node"><title>chef_client</title>
<polygon fill="lightgrey" stroke="black" points="323.5,-1150 198.5,-1150 198.5,-1114 323.5,-1114 323.5,-1150"/>
<text text-anchor="middle" x="261" y="-1127" font-family="Verdana" font-size="20.00">chef&#45;client</text>
</g>
<!-- chef_client&#45;&gt;base -->
<g id="edge7" class="edge"><title>chef_client&#45;&gt;base</title>
<path fill="none" stroke="black" d="M323.699,-1126.6C342.656,-1122.07 362.15,-1114.06 376,-1100 419.882,-1055.46 371.573,-1011.7 412,-964 414.461,-961.096 417.24,-958.443 420.237,-956.023"/>
<polygon fill="black" stroke="black" points="422.439,-958.753 428.609,-950.141 418.415,-953.025 422.439,-958.753"/>
</g>
<!-- itisystems -->
<g id="node9" class="node"><title>itisystems</title>
<polygon fill="palegreen" stroke="black" points="375.5,-1058 146.5,-1058 146.5,-1022 375.5,-1022 375.5,-1058"/>
<text text-anchor="middle" x="261" y="-1035" font-family="Verdana" font-size="20.00">mu&#45;users::itisystems</text>
</g>
<!-- itisystems&#45;&gt;base -->
<g id="edge8" class="edge"><title>itisystems&#45;&gt;base</title>
<path fill="none" stroke="black" d="M359.775,-1021.9C365.452,-1019.32 370.912,-1016.37 376,-1013 398.532,-998.081 390.992,-980.999 412,-964 416.035,-960.735 420.457,-957.73 425.058,-954.979"/>
<polygon fill="black" stroke="black" points="427.01,-957.9 434.074,-950.004 423.628,-951.771 427.01,-957.9"/>
</g>
<!-- sudo -->
<g id="node10" class="node"><title>sudo</title>
<polygon fill="lightgrey" stroke="black" points="87.5,-1092 22.5,-1092 22.5,-1056 87.5,-1056 87.5,-1092"/>
<text text-anchor="middle" x="55" y="-1069" font-family="Verdana" font-size="20.00">sudo</text>
</g>
<!-- sudo&#45;&gt;base -->
<g id="edge9" class="edge"><title>sudo&#45;&gt;base</title>
<path fill="none" stroke="black" d="M87.708,-1077.71C159.314,-1085.42 330.816,-1099.82 376,-1067 415.235,-1038.5 379.237,-999.752 412,-964 414.748,-961.002 417.83,-958.266 421.13,-955.773"/>
<polygon fill="black" stroke="black" points="423.326,-958.516 429.715,-950.064 419.45,-952.687 423.326,-958.516"/>
</g>
<!-- sudo&#45;&gt;itisystems -->
<g id="edge39" class="edge"><title>sudo&#45;&gt;itisystems</title>
<path fill="none" stroke="black" d="M87.875,-1068.69C102.926,-1066.18 121.925,-1063.01 141.764,-1059.71"/>
<polygon fill="black" stroke="black" points="142.589,-1063.12 151.877,-1058.02 141.438,-1056.21 142.589,-1063.12"/>
</g>
<!-- krb5 -->
<g id="node11" class="node"><title>krb5</title>
<polygon fill="palegreen" stroke="black" points="292,-1004 230,-1004 230,-968 292,-968 292,-1004"/>
<text text-anchor="middle" x="261" y="-981" font-family="Verdana" font-size="20.00">krb5</text>
</g>
<!-- krb5&#45;&gt;base -->
<g id="edge10" class="edge"><title>krb5&#45;&gt;base</title>
<path fill="none" stroke="black" d="M292.032,-979.014C315.036,-973.631 347.55,-965.958 376,-959 384.519,-956.917 393.412,-954.715 402.273,-952.504"/>
<polygon fill="black" stroke="black" points="403.391,-955.832 412.243,-950.01 401.692,-949.042 403.391,-955.832"/>
</g>
<!-- syslog -->
<g id="node12" class="node"><title>syslog</title>
<polygon fill="lightgrey" stroke="black" points="301.5,-950 220.5,-950 220.5,-914 301.5,-914 301.5,-950"/>
<text text-anchor="middle" x="261" y="-927" font-family="Verdana" font-size="20.00">syslog</text>
</g>
<!-- syslog&#45;&gt;base -->
<g id="edge11" class="edge"><title>syslog&#45;&gt;base</title>
<path fill="none" stroke="black" d="M301.51,-932C329.422,-932 367.812,-932 402.098,-932"/>
<polygon fill="black" stroke="black" points="402.117,-935.5 412.117,-932 402.117,-928.5 402.117,-935.5"/>
</g>
<!-- logwatch -->
<g id="node13" class="node"><title>logwatch</title>
<polygon fill="lightgrey" stroke="black" points="316,-896 206,-896 206,-860 316,-860 316,-896"/>
<text text-anchor="middle" x="261" y="-873" font-family="Verdana" font-size="20.00">logwatch</text>
</g>
<!-- logwatch&#45;&gt;base -->
<g id="edge12" class="edge"><title>logwatch&#45;&gt;base</title>
<path fill="none" stroke="black" d="M316.258,-890.68C335.177,-895.146 356.539,-900.24 376,-905 384.519,-907.083 393.412,-909.285 402.273,-911.496"/>
<polygon fill="black" stroke="black" points="401.692,-914.958 412.243,-913.99 403.391,-908.168 401.692,-914.958"/>
</g>
<!-- logrotate -->
<g id="node14" class="node"><title>logrotate</title>
<polygon fill="lightgrey" stroke="black" points="110,-1200 0,-1200 0,-1164 110,-1164 110,-1200"/>
<text text-anchor="middle" x="55" y="-1177" font-family="Verdana" font-size="20.00">logrotate</text>
</g>
<!-- logrotate&#45;&gt;base -->
<g id="edge13" class="edge"><title>logrotate&#45;&gt;base</title>
<path fill="none" stroke="black" d="M110.289,-1185.76C191.222,-1190.14 338.074,-1192.94 376,-1159 441.673,-1100.23 357.621,-1033.35 412,-964 414.237,-961.147 416.784,-958.541 419.552,-956.161"/>
<polygon fill="black" stroke="black" points="421.889,-958.786 427.862,-950.035 417.736,-953.151 421.889,-958.786"/>
</g>
<!-- logrotate&#45;&gt;chef_client -->
<g id="edge37" class="edge"><title>logrotate&#45;&gt;chef_client</title>
<path fill="none" stroke="black" d="M110.133,-1168.73C134.206,-1162.83 162.88,-1155.8 188.67,-1149.48"/>
<polygon fill="black" stroke="black" points="189.518,-1152.88 198.398,-1147.1 187.852,-1146.08 189.518,-1152.88"/>
</g>
<!-- snmp -->
<g id="node15" class="node"><title>snmp</title>
<polygon fill="palegreen" stroke="black" points="297,-842 225,-842 225,-806 297,-806 297,-842"/>
<text text-anchor="middle" x="261" y="-819" font-family="Verdana" font-size="20.00">snmp</text>
</g>
<!-- snmp&#45;&gt;base -->
<g id="edge14" class="edge"><title>snmp&#45;&gt;base</title>
<path fill="none" stroke="black" d="M297.126,-825.649C321.175,-828.285 352.79,-834.858 376,-851 399.681,-867.469 389.447,-887.018 412,-905 413.585,-906.264 415.236,-907.474 416.94,-908.631"/>
<polygon fill="black" stroke="black" points="415.455,-911.822 425.826,-913.988 419.069,-905.828 415.455,-911.822"/>
</g>
<!-- ntp -->
<g id="node16" class="node"><title>ntp</title>
<polygon fill="lightgrey" stroke="black" points="288,-788 234,-788 234,-752 288,-752 288,-788"/>
<text text-anchor="middle" x="261" y="-765" font-family="Verdana" font-size="20.00">ntp</text>
</g>
<!-- ntp&#45;&gt;base -->
<g id="edge15" class="edge"><title>ntp&#45;&gt;base</title>
<path fill="none" stroke="black" d="M288.419,-769.291C313.939,-770.045 352.136,-775.175 376,-797 413.337,-831.147 376.976,-868.486 412,-905 412.899,-905.937 413.833,-906.842 414.799,-907.715"/>
<polygon fill="black" stroke="black" points="412.697,-910.514 422.762,-913.823 416.958,-904.96 412.697,-910.514"/>
</g>
<!-- ssh -->
<g id="node17" class="node"><title>ssh</title>
<polygon fill="lightgrey" stroke="black" points="311.5,-734 210.5,-734 210.5,-698 311.5,-698 311.5,-734"/>
<text text-anchor="middle" x="261" y="-711" font-family="Verdana" font-size="20.00">openssh</text>
</g>
<!-- ssh&#45;&gt;base -->
<g id="edge16" class="edge"><title>ssh&#45;&gt;base</title>
<path fill="none" stroke="black" d="M311.551,-716.25C334.042,-718.961 359.29,-726.057 376,-743 427.79,-795.515 363.754,-849.212 412,-905 412.733,-905.848 413.496,-906.669 414.286,-907.465"/>
<polygon fill="black" stroke="black" points="412.126,-910.221 422.041,-913.953 416.618,-904.852 412.126,-910.221"/>
</g>
<!-- rsync -->
<g id="node18" class="node"><title>rsync</title>
<polygon fill="lightgrey" stroke="black" points="296.5,-680 225.5,-680 225.5,-644 296.5,-644 296.5,-680"/>
<text text-anchor="middle" x="261" y="-657" font-family="Verdana" font-size="20.00">rsync</text>
</g>
<!-- rsync&#45;&gt;base -->
<g id="edge17" class="edge"><title>rsync&#45;&gt;base</title>
<path fill="none" stroke="black" d="M296.618,-660.685C322.196,-661.695 355.93,-667.53 376,-689 442.46,-760.099 350.329,-829.709 412,-905 412.603,-905.736 413.229,-906.453 413.875,-907.15"/>
<polygon fill="black" stroke="black" points="411.7,-909.898 421.513,-913.894 416.334,-904.651 411.7,-909.898"/>
</g>
<!-- iptables -->
<g id="node19" class="node"><title>iptables</title>
<polygon fill="palegreen" stroke="black" points="330,-626 192,-626 192,-590 330,-590 330,-626"/>
<text text-anchor="middle" x="261" y="-603" font-family="Verdana" font-size="20.00">mu&#45;iptables</text>
</g>
<!-- iptables&#45;&gt;base -->
<g id="edge18" class="edge"><title>iptables&#45;&gt;base</title>
<path fill="none" stroke="black" d="M330.226,-610.677C347.355,-614.641 364.197,-621.953 376,-635 457.218,-724.775 336.824,-810.107 412,-905 412.591,-905.746 413.205,-906.472 413.841,-907.177"/>
<polygon fill="black" stroke="black" points="411.621,-909.888 421.387,-913.996 416.314,-904.694 411.621,-909.888"/>
</g>
<!-- rpmaudit -->
<g id="node20" class="node"><title>rpmaudit</title>
<polygon fill="palegreen" stroke="black" points="316,-572 206,-572 206,-536 316,-536 316,-572"/>
<text text-anchor="middle" x="261" y="-549" font-family="Verdana" font-size="20.00">rpmaudit</text>
</g>
<!-- rpmaudit&#45;&gt;base -->
<g id="edge19" class="edge"><title>rpmaudit&#45;&gt;base</title>
<path fill="none" stroke="black" d="M316.182,-553.941C337.829,-556.838 361.105,-564.169 376,-581 472.019,-689.5 323.279,-790.455 412,-905 412.485,-905.626 412.985,-906.237 413.501,-906.834"/>
<polygon fill="black" stroke="black" points="411.289,-909.556 420.986,-913.823 416.066,-904.44 411.289,-909.556"/>
</g>
<!-- vim -->
<g id="node21" class="node"><title>vim</title>
<polygon fill="lightgrey" stroke="black" points="288,-518 234,-518 234,-482 288,-482 288,-518"/>
<text text-anchor="middle" x="261" y="-495" font-family="Verdana" font-size="20.00">vim</text>
</g>
<!-- vim&#45;&gt;base -->
<g id="edge20" class="edge"><title>vim&#45;&gt;base</title>
<path fill="none" stroke="black" d="M288.069,-498.198C314.455,-497.942 354.358,-502.155 376,-527 431.423,-590.626 360.855,-837.887 412,-905 412.48,-905.629 412.976,-906.244 413.487,-906.844"/>
<polygon fill="black" stroke="black" points="411.252,-909.548 420.926,-913.87 416.059,-904.459 411.252,-909.548"/>
</g>
<!-- screen -->
<g id="node22" class="node"><title>screen</title>
<polygon fill="lightgrey" stroke="black" points="303,-464 219,-464 219,-428 303,-428 303,-464"/>
<text text-anchor="middle" x="261" y="-441" font-family="Verdana" font-size="20.00">screen</text>
</g>
<!-- screen&#45;&gt;base -->
<g id="edge21" class="edge"><title>screen&#45;&gt;base</title>
<path fill="none" stroke="black" d="M303.161,-444.494C328.046,-445.962 358.287,-452.421 376,-473 438.843,-546.012 354.064,-828.036 412,-905 412.476,-905.632 412.968,-906.25 413.477,-906.852"/>
<polygon fill="black" stroke="black" points="411.225,-909.542 420.88,-913.904 416.053,-904.473 411.225,-909.542"/>
</g>
<!-- build_essential -->
<g id="node23" class="node"><title>build_essential</title>
<polygon fill="lightgrey" stroke="black" points="344.5,-410 177.5,-410 177.5,-374 344.5,-374 344.5,-410"/>
<text text-anchor="middle" x="261" y="-387" font-family="Verdana" font-size="20.00">build&#45;essential</text>
</g>
<!-- build_essential&#45;&gt;base -->
<g id="edge22" class="edge"><title>build_essential&#45;&gt;base</title>
<path fill="none" stroke="black" d="M344.509,-398.274C356.559,-402.664 367.686,-409.25 376,-419 446.269,-501.403 347.268,-818.18 412,-905 412.473,-905.634 412.963,-906.254 413.468,-906.859"/>
<polygon fill="black" stroke="black" points="411.204,-909.536 420.845,-913.931 416.049,-904.484 411.204,-909.536"/>
</g>
<!-- iscsi -->
<g id="node24" class="node"><title>iscsi</title>
<polygon fill="palegreen" stroke="black" points="291.5,-356 230.5,-356 230.5,-320 291.5,-320 291.5,-356"/>
<text text-anchor="middle" x="261" y="-333" font-family="Verdana" font-size="20.00">iscsi</text>
</g>
<!-- iscsi&#45;&gt;base -->
<g id="edge23" class="edge"><title>iscsi&#45;&gt;base</title>
<path fill="none" stroke="black" d="M291.722,-336.055C318.137,-336.115 355.633,-340.937 376,-365 453.699,-456.798 340.469,-808.319 412,-905 412.471,-905.636 412.958,-906.257 413.462,-906.864"/>
<polygon fill="black" stroke="black" points="411.187,-909.532 420.816,-913.952 416.045,-904.492 411.187,-909.532"/>
</g>
<!-- zenoss_register -->
<g id="node25" class="node"><title>zenoss_register</title>
<polygon fill="palegreen" stroke="black" points="349,-302 173,-302 173,-266 349,-266 349,-302"/>
<text text-anchor="middle" x="261" y="-279" font-family="Verdana" font-size="20.00">zenoss_register</text>
</g>
<!-- zenoss_register&#45;&gt;base -->
<g id="edge24" class="edge"><title>zenoss_register&#45;&gt;base</title>
<path fill="none" stroke="black" d="M349.157,-291.965C359.43,-296.311 368.799,-302.44 376,-311 461.131,-412.197 333.667,-798.455 412,-905 412.469,-905.638 412.954,-906.26 413.456,-906.868"/>
<polygon fill="black" stroke="black" points="411.173,-909.529 420.792,-913.97 416.042,-904.499 411.173,-909.529"/>
</g>
<!-- postsrsd -->
<g id="node26" class="node"><title>postsrsd</title>
<polygon fill="palegreen" stroke="black" points="535.5,-1096 432.5,-1096 432.5,-1060 535.5,-1060 535.5,-1096"/>
<text text-anchor="middle" x="484" y="-1073" font-family="Verdana" font-size="20.00">postsrsd</text>
</g>
<!-- postsrsd&#45;&gt;mumail -->
<g id="edge32" class="edge"><title>postsrsd&#45;&gt;mumail</title>
<path fill="none" stroke="black" d="M535.775,-1062.13C542.847,-1058.95 549.804,-1055.26 556,-1051 583.397,-1032.18 607.953,-1002.88 623.743,-981.6"/>
<polygon fill="black" stroke="black" points="626.718,-983.459 629.754,-973.308 621.051,-979.35 626.718,-983.459"/>
</g>
<!-- cron -->
<g id="node27" class="node"><title>cron</title>
<polygon fill="lightgrey" stroke="black" points="85.5,-1146 24.5,-1146 24.5,-1110 85.5,-1110 85.5,-1146"/>
<text text-anchor="middle" x="55" y="-1123" font-family="Verdana" font-size="20.00">cron</text>
</g>
<!-- cron&#45;&gt;chef_client -->
<g id="edge38" class="edge"><title>cron&#45;&gt;chef_client</title>
<path fill="none" stroke="black" d="M85.6634,-1128.58C112.417,-1129.11 152.85,-1129.9 188.043,-1130.59"/>
<polygon fill="black" stroke="black" points="188.227,-1134.09 198.294,-1130.79 188.364,-1127.09 188.227,-1134.09"/>
</g>
<!-- mysql -->
<g id="node29" class="node"><title>mysql</title>
<polygon fill="lightgrey" stroke="black" points="522.5,-1042 445.5,-1042 445.5,-1006 522.5,-1006 522.5,-1042"/>
<text text-anchor="middle" x="484" y="-1019" font-family="Verdana" font-size="20.00">mysql</text>
</g>
<!-- mysql&#45;&gt;mumail -->
<g id="edge33" class="edge"><title>mysql&#45;&gt;mumail</title>
<path fill="none" stroke="black" d="M522.605,-1007.47C543.244,-998.403 569.114,-987.033 591.492,-977.198"/>
<polygon fill="black" stroke="black" points="593.096,-980.316 600.843,-973.088 590.28,-973.907 593.096,-980.316"/>
</g>
<!-- postfix -->
<g id="node30" class="node"><title>postfix</title>
<polygon fill="lightgrey" stroke="black" points="304,-1550 218,-1550 218,-1514 304,-1514 304,-1550"/>
<text text-anchor="middle" x="261" y="-1527" font-family="Verdana" font-size="20.00">postfix</text>
</g>
<!-- postfix&#45;&gt;base -->
<g id="edge25" class="edge"><title>postfix&#45;&gt;base</title>
<path fill="none" stroke="black" d="M304.007,-1531.61C328.893,-1528.97 358.829,-1521.14 376,-1500 451.26,-1407.33 343.885,-1062.04 412,-964 413.929,-961.224 416.158,-958.685 418.61,-956.363"/>
<polygon fill="black" stroke="black" points="420.92,-958.998 426.56,-950.03 416.558,-953.523 420.92,-958.998"/>
</g>
<!-- postfix&#45;&gt;mumail -->
<g id="edge34" class="edge"><title>postfix&#45;&gt;mumail</title>
<path fill="none" stroke="black" d="M304.233,-1528.08C329.206,-1523.4 359.153,-1513.2 376,-1491 442.538,-1403.32 338.479,-1078.91 412,-997 434.138,-972.335 521.624,-962.047 582.078,-957.831"/>
<polygon fill="black" stroke="black" points="582.532,-961.308 592.28,-957.158 582.072,-954.324 582.532,-961.308"/>
</g>
<!-- certificate -->
<g id="node31" class="node"><title>certificate</title>
<polygon fill="palegreen" stroke="black" points="544.5,-896 423.5,-896 423.5,-860 544.5,-860 544.5,-896"/>
<text text-anchor="middle" x="484" y="-873" font-family="Verdana" font-size="20.00">certificate</text>
</g>
<!-- certificate&#45;&gt;mumail -->
<g id="edge35" class="edge"><title>certificate&#45;&gt;mumail</title>
<path fill="none" stroke="black" d="M535.469,-896.022C542.442,-898.851 549.453,-901.878 556,-905 572.395,-912.819 589.834,-922.652 604.692,-931.525"/>
<polygon fill="black" stroke="black" points="603.209,-934.719 613.577,-936.899 606.832,-928.729 603.209,-934.719"/>
</g>
<!-- perl -->
<g id="node32" class="node"><title>perl</title>
<polygon fill="lightgrey" stroke="black" points="512,-842 456,-842 456,-806 512,-806 512,-842"/>
<text text-anchor="middle" x="484" y="-819" font-family="Verdana" font-size="20.00">perl</text>
</g>
<!-- perl&#45;&gt;mumail -->
<g id="edge36" class="edge"><title>perl&#45;&gt;mumail</title>
<path fill="none" stroke="black" d="M512.244,-830.747C526.183,-835.059 542.921,-841.631 556,-851 585.089,-871.838 610.078,-904.828 625.507,-928.054"/>
<polygon fill="black" stroke="black" points="622.757,-930.247 631.133,-936.736 628.632,-926.44 622.757,-930.247"/>
</g>
<!-- readline -->
<g id="node33" class="node"><title>readline</title>
<polygon fill="lightgrey" stroke="black" points="311,-248 211,-248 211,-212 311,-212 311,-248"/>
<text text-anchor="middle" x="261" y="-225" font-family="Verdana" font-size="20.00">readline</text>
</g>
<!-- readline&#45;&gt;base -->
<g id="edge26" class="edge"><title>readline&#45;&gt;base</title>
<path fill="none" stroke="black" d="M311.074,-228.917C334.307,-231.181 360.335,-238.283 376,-257 468.565,-367.597 326.863,-788.588 412,-905 412.467,-905.639 412.951,-906.262 413.452,-906.871"/>
<polygon fill="black" stroke="black" points="411.161,-909.526 420.773,-913.984 416.039,-904.505 411.161,-909.526"/>
</g>
<!-- users -->
<g id="node34" class="node"><title>users</title>
<polygon fill="lightgrey" stroke="black" points="90.5,-1038 19.5,-1038 19.5,-1002 90.5,-1002 90.5,-1038"/>
<text text-anchor="middle" x="55" y="-1015" font-family="Verdana" font-size="20.00">users</text>
</g>
<!-- users&#45;&gt;itisystems -->
<g id="edge40" class="edge"><title>users&#45;&gt;itisystems</title>
<path fill="none" stroke="black" d="M90.6058,-1023.39C103.691,-1024.68 119.455,-1026.22 136.031,-1027.85"/>
<polygon fill="black" stroke="black" points="136.146,-1031.37 146.44,-1028.87 136.829,-1024.41 136.146,-1031.37"/>
</g>
</g>
</svg>
