<?xml version="1.0" encoding="UTF-8" standalone="no"?>
<!DOCTYPE svg PUBLIC "-//W3C//DTD SVG 1.1//EN"
 "http://www.w3.org/Graphics/SVG/1.1/DTD/svg11.dtd">
<!-- Generated by graphviz version 2.34.0 (20140110.0949)
 -->
<!-- Title: structs Pages: 1 -->
<svg width="576pt" height="722pt"
 viewBox="0.00 0.00 575.81 722.00" xmlns="http://www.w3.org/2000/svg" xmlns:xlink="http://www.w3.org/1999/xlink">
<g id="graph0" class="graph" transform="scale(1 1) rotate(0) translate(4 718)">
<title>structs</title>
<polygon fill="white" stroke="white" points="-4,4 -4,-718 571.805,-718 571.805,4 -4,4"/>
<!-- baseline -->
<g id="node1" class="node"><title>baseline</title>
<polygon fill="none" stroke="lightblue" points="38,-519 38,-565 234,-565 234,-519 38,-519"/>
<text text-anchor="middle" x="111" y="-545.8" font-family="Times,serif" font-size="14.00">mu&#45;baseline:</text>
<text text-anchor="middle" x="111" y="-530.8" font-family="Times,serif" font-size="14.00">Quick unit tests/linting)</text>
<polyline fill="none" stroke="lightblue" points="184,-519 184,-565 "/>
<text text-anchor="middle" x="209" y="-549.8" font-family="Times,serif" font-size="14.00">pass</text>
<polyline fill="none" stroke="lightblue" points="184,-542 234,-542 "/>
<text text-anchor="middle" x="209" y="-526.8" font-family="Times,serif" font-size="14.00">STOP</text>
</g>
<!-- baseline_kitchen -->
<g id="node2" class="node"><title>baseline_kitchen</title>
<polygon fill="none" stroke="black" points="0,-428.5 0,-481.5 218,-481.5 218,-428.5 0,-428.5"/>
<text text-anchor="middle" x="84" y="-466.3" font-family="Times,serif" font-size="14.00">mu&#45;baseline&#45;kitchen</text>
<text text-anchor="middle" x="84" y="-451.3" font-family="Times,serif" font-size="14.00">Kitchen CI run on Docker,</text>
<text text-anchor="middle" x="84" y="-436.3" font-family="Times,serif" font-size="14.00">and BATS integration tests.</text>
<polyline fill="none" stroke="black" points="168,-428.5 168,-481.5 "/>
<text text-anchor="middle" x="193" y="-464.8" font-family="Times,serif" font-size="14.00">pass</text>
<polyline fill="none" stroke="black" points="168,-455.5 218,-455.5 "/>
<text text-anchor="middle" x="193" y="-438.3" font-family="Times,serif" font-size="14.00">STOP</text>
</g>
<!-- baseline&#45;&gt;baseline_kitchen -->
<g id="edge6" class="edge"><title>baseline:pass&#45;&gt;baseline_kitchen</title>
<path fill="none" stroke="black" d="M209,-566C209,-577.12 226.296,-573.019 234,-565 248.472,-549.937 245.01,-535.752 234,-518 226.116,-505.288 214.762,-495.102 202.071,-486.961"/>
<polygon fill="black" stroke="black" points="203.486,-483.731 193.098,-481.647 199.919,-489.754 203.486,-483.731"/>
</g>
<!-- baseline_deploy -->
<g id="node3" class="node"><title>baseline_deploy</title>
<polygon fill="none" stroke="black" points="10.5,-338.5 10.5,-391.5 269.5,-391.5 269.5,-338.5 10.5,-338.5"/>
<text text-anchor="middle" x="115" y="-376.3" font-family="Times,serif" font-size="14.00">mu&#45;baseline&#45;deploy</text>
<text text-anchor="middle" x="115" y="-361.3" font-family="Times,serif" font-size="14.00">Upload to Chef, pin component by</text>
<text text-anchor="middle" x="115" y="-346.3" font-family="Times,serif" font-size="14.00">version in production environment.</text>
<polyline fill="none" stroke="black" points="219.5,-338.5 219.5,-391.5 "/>
<text text-anchor="middle" x="244.5" y="-374.8" font-family="Times,serif" font-size="14.00">pass</text>
<polyline fill="none" stroke="black" points="219.5,-365.5 269.5,-365.5 "/>
<text text-anchor="middle" x="244.5" y="-348.3" font-family="Times,serif" font-size="14.00">STOP</text>
</g>
<!-- baseline_kitchen&#45;&gt;baseline_deploy -->
<g id="edge7" class="edge"><title>baseline_kitchen:pass&#45;&gt;baseline_deploy</title>
<path fill="none" stroke="black" d="M193,-483C193,-494.12 210.296,-490.019 218,-482 234.628,-464.694 228.43,-449.615 218,-428 212.483,-416.567 203.72,-406.595 194.025,-398.184"/>
<polygon fill="black" stroke="black" points="196.072,-395.339 186.094,-391.776 191.673,-400.783 196.072,-395.339"/>
</g>
<!-- mumail -->
<g id="node4" class="node"><title>mumail</title>
<polygon fill="none" stroke="lightblue" points="219.5,-255 219.5,-301 414.5,-301 414.5,-255 219.5,-255"/>
<text text-anchor="middle" x="292" y="-281.8" font-family="Times,serif" font-size="14.00">mu&#45;mail:</text>
<text text-anchor="middle" x="292" y="-266.8" font-family="Times,serif" font-size="14.00">Quick unit tests/linting.</text>
<polyline fill="none" stroke="lightblue" points="364.5,-255 364.5,-301 "/>
<text text-anchor="middle" x="389.5" y="-285.8" font-family="Times,serif" font-size="14.00">pass</text>
<polyline fill="none" stroke="lightblue" points="364.5,-278 414.5,-278 "/>
<text text-anchor="middle" x="389.5" y="-262.8" font-family="Times,serif" font-size="14.00">STOP</text>
</g>
<!-- baseline_deploy&#45;&gt;mumail -->
<g id="edge8" class="edge"><title>baseline_deploy:pass&#45;&gt;mumail</title>
<path fill="none" stroke="black" d="M271,-379C290.116,-379 276.406,-355.543 284,-338 288.048,-328.647 293.147,-318.851 298.118,-309.988"/>
<polygon fill="black" stroke="black" points="301.251,-311.561 303.203,-301.148 295.183,-308.071 301.251,-311.561"/>
</g>
<!-- deployed -->
<g id="node9" class="node"><title>deployed</title>
<polygon fill="none" stroke="green" points="288,-1 288,-37 436,-37 436,-1 288,-1"/>
<text text-anchor="middle" x="362" y="-15.3" font-family="Times,serif" font-size="14.00">CHANGE DEPLOYED</text>
</g>
<!-- baseline_deploy&#45;&gt;deployed -->
<g id="edge9" class="edge"><title>baseline_deploy:pass&#45;&gt;deployed</title>
<path fill="none" stroke="black" d="M245,-393C245,-403.676 261.61,-399.705 269,-392 285.614,-374.68 280.747,-358.929 269,-338 253.965,-311.213 225.035,-328.787 210,-302 178.983,-246.739 179.566,-158.502 246,-74 257.237,-59.7073 273.145,-49.0341 289.589,-41.1269"/>
<polygon fill="black" stroke="black" points="291.064,-44.3014 298.754,-37.0132 288.197,-37.9153 291.064,-44.3014"/>
</g>
<!-- mumail_kitchen -->
<g id="node5" class="node"><title>mumail_kitchen</title>
<polygon fill="none" stroke="black" points="250,-164.5 250,-217.5 468,-217.5 468,-164.5 250,-164.5"/>
<text text-anchor="middle" x="334" y="-202.3" font-family="Times,serif" font-size="14.00">mu&#45;mail&#45;kitchen:</text>
<text text-anchor="middle" x="334" y="-187.3" font-family="Times,serif" font-size="14.00">Kitchen CI run on Docker,</text>
<text text-anchor="middle" x="334" y="-172.3" font-family="Times,serif" font-size="14.00">and BATS integration tests.</text>
<polyline fill="none" stroke="black" points="418,-164.5 418,-217.5 "/>
<text text-anchor="middle" x="443" y="-200.8" font-family="Times,serif" font-size="14.00">pass</text>
<polyline fill="none" stroke="black" points="418,-191.5 468,-191.5 "/>
<text text-anchor="middle" x="443" y="-174.3" font-family="Times,serif" font-size="14.00">STOP</text>
</g>
<!-- mumail&#45;&gt;mumail_kitchen -->
<g id="edge10" class="edge"><title>mumail:pass&#45;&gt;mumail_kitchen</title>
<path fill="none" stroke="black" d="M416,-290C446.715,-290 418.802,-253.583 392.325,-225.148"/>
<polygon fill="black" stroke="black" points="394.726,-222.594 385.304,-217.748 389.648,-227.412 394.726,-222.594"/>
</g>
<!-- mumail_deploy -->
<g id="node6" class="node"><title>mumail_deploy</title>
<polygon fill="none" stroke="black" points="255.5,-74.5 255.5,-127.5 556.5,-127.5 556.5,-74.5 255.5,-74.5"/>
<text text-anchor="middle" x="381" y="-112.3" font-family="Times,serif" font-size="14.00">mu&#45;mail&#45;deploy:</text>
<text text-anchor="middle" x="381" y="-97.3" font-family="Times,serif" font-size="14.00">Upload to Chef, pin component by version</text>
<text text-anchor="middle" x="381" y="-82.3" font-family="Times,serif" font-size="14.00">in production environment.</text>
<polyline fill="none" stroke="black" points="506.5,-74.5 506.5,-127.5 "/>
<text text-anchor="middle" x="531.5" y="-110.8" font-family="Times,serif" font-size="14.00">pass</text>
<polyline fill="none" stroke="black" points="506.5,-101.5 556.5,-101.5 "/>
<text text-anchor="middle" x="531.5" y="-84.3" font-family="Times,serif" font-size="14.00">STOP</text>
</g>
<!-- mumail_kitchen&#45;&gt;mumail_deploy -->
<g id="edge11" class="edge"><title>mumail_kitchen:pass&#45;&gt;mumail_deploy</title>
<path fill="none" stroke="black" d="M469,-205C487.228,-205 475.18,-180.754 468,-164 463.409,-153.287 456.017,-143.435 447.911,-134.889"/>
<polygon fill="black" stroke="black" points="450.231,-132.261 440.657,-127.725 445.313,-137.242 450.231,-132.261"/>
</g>
<!-- mumail_deploy&#45;&gt;deployed -->
<g id="edge12" class="edge"><title>mumail_deploy:pass&#45;&gt;deployed</title>
<path fill="none" stroke="black" d="M532,-129C532,-139.676 548.61,-135.705 556,-128 572.614,-110.68 570.518,-93.111 556,-74 542.183,-55.8124 491.932,-42.1232 446.038,-33.0785"/>
<polygon fill="black" stroke="black" points="446.502,-29.6038 436.022,-31.1626 445.186,-36.4792 446.502,-29.6038"/>
</g>
<!-- CHANGE -->
<g id="node7" class="node"><title>CHANGE</title>
<polygon fill="none" stroke="red" points="199.5,-677 199.5,-713 272.5,-713 272.5,-677 199.5,-677"/>
<text text-anchor="middle" x="236" y="-691.3" font-family="Times,serif" font-size="14.00">CHANGE</text>
</g>
<!-- CHANGE&#45;&gt;baseline -->
<g id="edge1" class="edge"><title>CHANGE&#45;&gt;baseline</title>
<path fill="none" stroke="black" d="M199.165,-677.618C183.224,-668.71 165.783,-656.171 155,-640 142.33,-621 137.698,-595.54 136.172,-575.472"/>
<polygon fill="black" stroke="black" points="139.654,-575.04 135.621,-565.243 132.664,-575.417 139.654,-575.04"/>
</g>
<!-- CHANGE&#45;&gt;mumail -->
<g id="edge2" class="edge"><title>CHANGE&#45;&gt;mumail</title>
<path fill="none" stroke="black" d="M272.723,-677.238C288.342,-668.316 305.369,-655.871 316,-640 340.497,-603.428 336,-587.018 336,-543 336,-543 336,-543 336,-454 336,-403.871 328.199,-346.135 322.595,-311.121"/>
<polygon fill="black" stroke="black" points="326.01,-310.318 320.937,-301.017 319.102,-311.452 326.01,-310.318"/>
</g>
<!-- dependencies -->
<g id="node8" class="node"><title>dependencies</title>
<polygon fill="none" stroke="lightgrey" points="164.5,-603 164.5,-639 307.5,-639 307.5,-603 164.5,-603"/>
<text text-anchor="middle" x="236" y="-617.3" font-family="Times,serif" font-size="14.00">upstream dependencies</text>
</g>
<!-- CHANGE&#45;&gt;dependencies -->
<g id="edge3" class="edge"><title>CHANGE&#45;&gt;dependencies</title>
<path fill="none" stroke="black" d="M236,-676.937C236,-668.807 236,-658.876 236,-649.705"/>
<polygon fill="black" stroke="black" points="239.5,-649.441 236,-639.441 232.5,-649.441 239.5,-649.441"/>
</g>
<!-- dependencies&#45;&gt;baseline -->
<g id="edge4" class="edge"><title>dependencies&#45;&gt;baseline</title>
<path fill="none" stroke="black" d="M213.807,-602.911C201.685,-593.578 186.367,-581.783 172.535,-571.132"/>
<polygon fill="black" stroke="black" points="174.656,-568.348 164.597,-565.02 170.385,-573.894 174.656,-568.348"/>
</g>
<!-- dependencies&#45;&gt;mumail -->
<g id="edge5" class="edge"><title>dependencies&#45;&gt;mumail</title>
<path fill="none" stroke="black" d="M240.128,-602.621C253.007,-548.401 292.588,-381.771 309.361,-311.158"/>
<polygon fill="black" stroke="black" points="312.852,-311.608 311.757,-301.07 306.041,-309.991 312.852,-311.608"/>
</g>
</g>
</svg>
